<?xml version="1.0" standalone="no"?>
<!DOCTYPE svg PUBLIC "-//W3C//DTD SVG 20010904//EN"
 "http://www.w3.org/TR/2001/REC-SVG-20010904/DTD/svg10.dtd">
<svg version="1.0" xmlns="http://www.w3.org/2000/svg"
 width="1183.000000pt" height="1280.000000pt" viewBox="0 0 1183.000000 1280.000000"
 preserveAspectRatio="xMidYMid meet">
<g transform="translate(0.000000,1280.000000) scale(0.100000,-0.100000)"
fill="#000000" stroke="none">
<path d="M5460 12789 c-856 -61 -1669 -336 -2384 -807 -496 -326 -924 -739
-1271 -1227 -464 -652 -774 -1446 -874 -2240 -81 -645 -32 -1286 147 -1925
225 -801 646 -1525 1233 -2122 l126 -129 -101 -86 c-229 -196 -551 -537 -780
-823 -566 -707 -1069 -1645 -1456 -2715 -110 -305 -117 -345 -79 -458 40 -118
132 -208 248 -241 49 -14 599 -16 5648 -16 l5594 0 62 21 c123 41 211 136 243
261 24 92 14 145 -69 393 -185 545 -344 936 -576 1411 -198 403 -349 671 -568
1001 -354 536 -783 1026 -1226 1398 l-67 56 32 38 c18 21 74 85 123 142 887
1021 1320 2448 1149 3784 -169 1318 -857 2518 -1889 3295 -502 377 -1036 642
-1658 820 -494 142 -1098 205 -1607 169z"/>
</g>
</svg>
